<?xml version="1.0" encoding="UTF-8" standalone="no"?>
<!DOCTYPE svg PUBLIC "-//W3C//DTD SVG 1.1//EN" "http://www.w3.org/Graphics/SVG/1.1/DTD/svg11.dtd">
<svg width="100%" height="100%" viewBox="0 0 1080 1080" version="1.1" xmlns="http://www.w3.org/2000/svg" xmlns:xlink="http://www.w3.org/1999/xlink" xml:space="preserve" xmlns:serif="http://www.serif.com/" style="fill-rule:evenodd;clip-rule:evenodd;stroke-linejoin:round;stroke-miterlimit:2;">
    <g transform="matrix(1,0,0,1,-90.6824,-49.3423)">
        <g id="Layer1">
            <g>
                <g>
                    <path d="M571.746,532.835C571.995,535.189 572.123,537.58 572.123,540L572.123,692.123C572.123,693.379 571.993,694.604 571.746,695.787C571.746,695.788 571.746,695.789 571.746,695.791C571.735,695.84 571.725,695.89 571.714,695.94C571.71,695.807 571.705,695.674 571.701,695.542L571.746,695.542L571.746,532.835Z" style="fill:rgb(98,210,222);"/>
                    <path d="M571.746,298.18L571.746,540C571.746,502.467 541.063,472.04 503.213,472.04C465.363,472.04 434.679,502.467 434.679,540L434.679,359.245C434.679,355.708 434.573,352.42 434.891,349.657C437.64,320.951 466.81,298.338 502.46,298.18C502.585,298.18 502.711,298.18 502.836,298.18L571.746,298.18Z" style="fill:rgb(60,98,243);"/>
                    <g transform="matrix(1,0,0,1,0,158.053)">
                        <path d="M571.746,537.489L571.746,540C571.746,539.54 571.742,539.082 571.733,538.624C571.728,538.378 571.722,538.133 571.714,537.887C571.71,537.755 571.705,537.622 571.701,537.489L571.746,537.489ZM434.679,540L434.679,515.342L435.055,515.342L435.055,532.835C434.807,535.189 434.679,537.58 434.679,540Z" style="fill:rgb(98,210,222);"/>
                    </g>
                    <g transform="matrix(-1,1.22465e-16,-1.22465e-16,-1,1006.8,1049.64)">
                        <g transform="matrix(0.904176,0,0,1,25.516,68.6587)">
                            <path d="M452.943,285.191C452.945,284.895 452.95,284.6 452.958,284.305C452.963,284.551 452.97,284.796 452.978,285.042C452.983,285.174 452.988,285.307 452.993,285.44L452.942,285.44C452.942,285.357 452.943,285.274 452.943,285.191Z" style="fill:rgb(98,210,222);"/>
                        </g>
                        <g transform="matrix(0.692074,0,0,1.15488,154.316,-32.6948)">
                            <path d="M603.704,332.748L603.704,354.098L603.16,354.098L603.16,338.952C603.519,336.913 603.704,334.843 603.704,332.748Z" style="fill:rgb(98,210,222);"/>
                        </g>
                    </g>
                    <path d="M434.679,673.395L434.679,517.298C434.679,513.76 434.573,510.473 434.891,507.71C437.64,479.004 466.81,456.391 502.46,456.233L502.836,456.232L571.746,456.232L571.746,695.542L571.701,695.542C571.705,695.674 571.71,695.807 571.714,695.94C571.722,696.185 571.728,696.431 571.733,696.677C570.998,726.933 540.973,751.296 503.966,751.46C503.84,751.46 503.715,751.461 503.589,751.461L434.679,751.461L434.679,698.053C434.679,695.632 434.807,693.242 435.055,690.887L435.055,673.395L434.679,673.395Z" style="fill:rgb(98,210,222);"/>
                </g>
                <g transform="matrix(1,0,0,1,-1.13687e-13,11.6778)">
                    <g transform="matrix(1.04895,0,0,1.04102,-35.5605,-17.2998)">
                        <path d="M784.815,310.008L784.815,403.517C784.815,413.549 776.731,421.695 766.774,421.695L627.474,421.695C617.517,421.695 609.433,413.549 609.433,403.517L609.433,310.008C609.433,299.975 617.517,291.83 627.474,291.83L766.774,291.83C776.731,291.83 784.815,299.975 784.815,310.008Z" style="fill:rgb(60,98,243);"/>
                    </g>
                    <g transform="matrix(-6.12323e-17,-1,-1,6.12323e-17,1124.88,858.625)">
                        <g transform="matrix(0.891191,1.11448e-32,-1.2326e-32,1,33.3552,68.6587)">
                            <path d="M603.704,285.44L452.942,285.44C452.942,254.557 486.691,229.521 528.323,229.521C569.954,229.521 603.704,254.557 603.704,285.44Z" style="fill:rgb(60,98,243);"/>
                        </g>
                        <g transform="matrix(0.692074,0,0,1.15488,154.316,-32.6948)">
                            <rect x="503.589" y="286.502" width="100.114" height="67.596" style="fill:rgb(60,98,243);"/>
                        </g>
                    </g>
                </g>
                <g transform="matrix(1,0,0,1,-0.425411,-16.1714)">
                    <g transform="matrix(0.755255,0,0,1.04102,143.426,168.602)">
                        <path d="M784.815,312.844L784.815,400.68C784.815,412.278 771.835,421.695 755.848,421.695L638.399,421.695C622.412,421.695 609.433,412.278 609.433,400.68L609.433,312.844C609.433,301.246 622.412,291.83 638.399,291.83L755.848,291.83C771.835,291.83 784.815,301.246 784.815,312.844Z" style="fill:rgb(98,210,222);"/>
                    </g>
                    <g transform="matrix(0.016972,1.53943,-0.758616,0.00836366,1118.62,-644.219)">
                        <path d="M810.237,540L722.783,540C722.783,502.668 742.36,472.404 766.51,472.404C790.66,472.404 810.237,502.668 810.237,540Z" style="fill:rgb(98,210,222);"/>
                    </g>
                </g>
            </g>
        </g>
    </g>
</svg>
